<?xml version="1.0" standalone="no"?>
<!DOCTYPE svg PUBLIC "-//W3C//DTD SVG 20010904//EN"
 "http://www.w3.org/TR/2001/REC-SVG-20010904/DTD/svg10.dtd">
<svg version="1.0" xmlns="http://www.w3.org/2000/svg"
 width="260.000000pt" height="260.000000pt" viewBox="0 0 260.000000 260.000000"
 preserveAspectRatio="xMidYMid meet">
<metadata>
Created by potrace 1.14, written by Peter Selinger 2001-2017
</metadata>
<g transform="translate(0.000000,260.000000) scale(0.100000,-0.100000)"
fill="#000000" stroke="none">
<path d="M233 2346 l-28 -24 -3 -1051 -2 -1050 29 -33 c24 -27 36 -33 71 -33
35 0 47 6 71 33 l29 32 0 1046 0 1046 -29 29 c-39 38 -97 40 -138 5z"/>
<path d="M596 2344 c-20 -20 -26 -37 -26 -68 0 -38 27 -80 325 -506 179 -256
334 -473 346 -482 27 -23 88 -23 116 0 17 14 482 673 636 902 47 69 49 110 8
151 -38 37 -97 40 -135 7 -14 -13 -146 -196 -294 -407 -147 -211 -272 -384
-276 -385 -5 -1 -130 175 -278 389 -148 215 -278 398 -289 408 -33 27 -101 23
-133 -9z"/>
<path d="M2228 2345 c-14 -14 -28 -39 -32 -56 -3 -18 -6 -482 -5 -1033 0 -748
3 -1010 12 -1036 7 -21 25 -42 45 -53 29 -17 39 -18 73 -8 27 8 46 23 59 44
19 31 20 59 20 1054 0 613 -4 1032 -9 1046 -26 69 -114 91 -163 42z"/>
<path d="M638 1581 l-33 -29 -3 -645 c-3 -711 -3 -706 56 -740 29 -17 39 -18
73 -8 76 23 73 6 79 544 l5 478 209 -301 c146 -211 217 -305 235 -311 37 -15
84 -3 113 29 14 15 107 146 208 292 100 146 189 272 196 280 12 12 14 -57 14
-468 l0 -482 29 -32 c24 -27 36 -33 71 -33 35 0 47 6 71 33 l29 32 0 666 0
666 -29 29 c-32 32 -78 38 -119 16 -12 -7 -137 -177 -278 -377 -141 -201 -259
-368 -263 -373 -4 -4 -124 161 -266 367 -154 222 -269 379 -282 385 -42 19
-81 13 -115 -18z"/>
</g>
</svg>
