<?xml version="1.0" standalone="no"?>
<!DOCTYPE svg PUBLIC "-//W3C//DTD SVG 20010904//EN"
 "http://www.w3.org/TR/2001/REC-SVG-20010904/DTD/svg10.dtd">
<svg version="1.0" xmlns="http://www.w3.org/2000/svg"
 width="260.000000pt" height="260.000000pt" viewBox="0 0 260.000000 260.000000"
 preserveAspectRatio="xMidYMid meet">
<metadata>
Created by potrace 1.14, written by Peter Selinger 2001-2017
</metadata>
<g transform="translate(0.000000,260.000000) scale(0.100000,-0.100000)"
fill="#000000" stroke="none">
<path d="M265 2361 c-11 -5 -29 -19 -40 -31 -20 -22 -20 -38 -23 -1029 -2
-553 0 -1026 3 -1050 9 -57 42 -91 90 -91 47 0 71 14 90 50 13 25 15 159 15
1050 0 902 -2 1026 -15 1055 -23 47 -71 66 -120 46z"/>
<path d="M620 2357 c-33 -17 -52 -55 -46 -94 5 -36 604 -905 663 -962 31 -29
40 -32 71 -27 20 3 46 16 58 28 39 41 646 920 653 947 22 80 -56 145 -133 110
-15 -7 -131 -164 -306 -416 -156 -222 -286 -401 -290 -396 -5 4 -126 179 -270
388 -144 209 -275 392 -291 408 -32 29 -69 34 -109 14z"/>
<path d="M2254 2360 c-57 -23 -54 38 -54 -1098 l0 -1044 29 -29 c41 -40 91
-40 132 0 l29 29 0 1042 c0 695 -3 1048 -10 1061 -12 22 -61 49 -87 48 -10 0
-28 -4 -39 -9z"/>
<path d="M658 1594 c-15 -8 -32 -23 -38 -34 -6 -12 -10 -247 -10 -680 l0 -662
29 -29 c41 -40 91 -40 132 0 l29 29 0 486 c0 267 3 486 8 486 4 0 95 -127 202
-282 246 -355 231 -338 285 -338 26 0 50 7 63 17 11 10 111 150 222 311 112
160 206 292 209 292 3 0 5 -206 3 -457 -2 -252 0 -473 3 -492 20 -109 170
-109 190 0 3 19 5 321 3 671 l-3 636 -23 25 c-31 33 -64 40 -105 23 -28 -11
-81 -81 -293 -384 -142 -204 -263 -371 -269 -371 -5 0 -122 165 -260 366 -156
228 -261 372 -280 384 -36 23 -60 23 -97 3z"/>
</g>
</svg>
